<svg width="400" height="645" viewBox="0 0 460 815" fill="none" xmlns="http://www.w3.org/2000/svg">
<circle cx="60" cy="415" r="400" fill="url(#paint0_linear_871_1308)"/>
<path d="M329.341 255.233L331.292 254.97C331.292 254.97 335.943 242.842 333.393 235.558L328.591 238.787L329.141 250.45" fill="#1A80FD"/>
<path d="M329.341 255.233L331.292 254.97C331.292 254.97 335.943 242.842 333.393 235.558L328.591 238.787L329.141 250.45" stroke="#333333" stroke-width="0.625" stroke-linecap="round" stroke-linejoin="round"/>
<path d="M241.16 313.258L239.459 316.963L240.009 321.112L331.292 254.97V251.478L326.49 247.122L241.16 313.258V313.258Z" fill="#E43334" stroke="#333333" stroke-width="0.625" stroke-linecap="round" stroke-linejoin="round"/>
<path d="M78.0021 225.845L72 226.245V230.451L240.009 321.112L239.459 316.963V308.152" fill="#E43334"/>
<path d="M78.0021 225.845L72 226.245V230.451L240.009 321.112L239.459 316.963V308.152" stroke="#333333" stroke-width="0.625" stroke-linecap="round" stroke-linejoin="round"/>
<path d="M72 226.245C72 226.245 118.817 173.376 181.839 179.985L331.292 251.478L239.459 316.963L72 226.245Z" fill="#E43334"/>
<mask id="mask0_871_1308" style="mask-type:luminance" maskUnits="userSpaceOnUse" x="72" y="179" width="260" height="138">
<path fill-rule="evenodd" clip-rule="evenodd" d="M72 226.245C72 226.245 118.817 173.376 181.839 179.985L331.292 251.478L239.459 316.963L72 226.245Z" fill="white"/>
</mask>
<g mask="url(#mask0_871_1308)">
<path d="M97.2042 222.626C85.6047 221.038 241.903 305.584 238.004 310.79C234.105 315.997 270.615 293.491 256.861 284.117C243.106 274.743 201.646 260.922 201.646 260.922" fill="#E43334"/>
<path d="M97.2042 222.626C85.6047 221.038 241.903 305.584 238.004 310.79C234.105 315.997 270.615 293.491 256.861 284.117C243.106 274.743 201.646 260.922 201.646 260.922" stroke="#333333" stroke-width="0.625" stroke-linecap="round" stroke-linejoin="round"/>
</g>
<path fill-rule="evenodd" clip-rule="evenodd" d="M72 226.245C72 226.245 118.817 173.376 181.839 179.985L331.292 251.478L239.459 316.963L72 226.245Z" stroke="#333333" stroke-width="0.625" stroke-linecap="round" stroke-linejoin="round"/>
<path d="M306.083 248.188L331.291 251.478L333.392 235.557L288.977 216.633L306.083 248.188V248.188Z" fill="#1A80FD" stroke="#333333" stroke-width="0.625" stroke-linecap="round" stroke-linejoin="round"/>
<path d="M331.374 238.561L334.157 237.359C334.157 237.359 380.509 186.293 458.937 192L459.512 189.747L415.321 184.791L341.796 198.609L327.09 229.85L331.374 238.561Z" fill="#E43334" stroke="#333333" stroke-width="0.625" stroke-linecap="round" stroke-linejoin="round"/>
<path d="M324.089 235.257L333.392 235.557C333.392 235.557 378.783 183.139 459.512 189.747L387.111 156.854L288.977 186.994L270.07 211.426L324.089 235.257Z" fill="#E43334" stroke="#333333" stroke-width="0.625" stroke-linecap="round" stroke-linejoin="round"/>
<path d="M101.21 196.206L87.6057 201.813C87.6057 201.813 89.6064 214.23 85.605 221.038L240.229 306.571L239.236 280.405L101.21 196.206Z" fill="white"/>
<mask id="mask1_871_1308" style="mask-type:luminance" maskUnits="userSpaceOnUse" x="85" y="196" width="156" height="111">
<path fill-rule="evenodd" clip-rule="evenodd" d="M101.21 196.206L87.6057 201.813C87.6057 201.813 89.6064 214.23 85.605 221.038L240.229 306.571L239.236 280.405L101.21 196.206Z" fill="white"/>
</mask>
<g mask="url(#mask1_871_1308)">
<path d="M77.8974 204.97L140.62 238.561L76.9971 207.606L77.8974 204.97V204.97Z" fill="#D6DCF2"/>
</g>
<path fill-rule="evenodd" clip-rule="evenodd" d="M101.21 196.206L87.6057 201.813C87.6057 201.813 89.6064 214.23 85.605 221.038L240.229 306.571L239.236 280.405L101.21 196.206Z" stroke="#333333" stroke-width="0.625" stroke-linecap="round" stroke-linejoin="round"/>
<path d="M422.971 171.649L445.527 186.429C445.527 186.429 381.057 179.414 334.157 237.36L327.845 249.83L310.084 231.468L311.184 216.857L341.695 179.414L375.707 174.779" fill="white"/>
<path d="M422.971 171.649L445.527 186.429C445.527 186.429 381.057 179.414 334.157 237.36L327.845 249.83L310.084 231.468L311.184 216.857L341.695 179.414L375.707 174.779" stroke="#333333" stroke-width="0.625" stroke-linecap="round" stroke-linejoin="round"/>
<path d="M245.661 253.08L238.628 281.31L240.229 306.571L327.845 249.83L323.184 238.561L261.367 235.558L245.661 253.08V253.08Z" fill="white" stroke="#333333" stroke-width="0.625" stroke-linecap="round" stroke-linejoin="round"/>
<path d="M197.244 167.368C197.244 167.368 136.023 136.929 87.6055 201.813L239.235 280.405C239.235 280.405 271.166 239.062 323.184 238.561L197.244 167.368Z" fill="white" stroke="#333333" stroke-width="0.625" stroke-linecap="round" stroke-linejoin="round"/>
<path d="M287.276 92.8721C273.671 111.697 209.648 110.094 197.244 167.369L323.184 238.562C323.184 238.562 380.795 169.126 424.01 172.33V172.33L287.276 92.8721Z" fill="white"/>
<mask id="mask2_871_1308" style="mask-type:luminance" maskUnits="userSpaceOnUse" x="197" y="92" width="228" height="147">
<path fill-rule="evenodd" clip-rule="evenodd" d="M287.276 92.8721C273.671 111.697 209.648 110.094 197.244 167.369L323.184 238.562C323.184 238.562 380.795 169.126 424.01 172.33V172.33L287.276 92.8721Z" fill="white"/>
</mask>
<g mask="url(#mask2_871_1308)">
<path d="M205.847 140.319C197.244 167.369 296.074 205.513 293.673 221.879C291.273 238.246 174.791 179.495 174.791 179.495V118.69" fill="#D6DCF2"/>
</g>
<path fill-rule="evenodd" clip-rule="evenodd" d="M287.276 92.8721C273.671 111.697 209.648 110.094 197.244 167.369L323.184 238.562C323.184 238.562 380.795 169.126 424.01 172.33V172.33L287.276 92.8721Z" stroke="#333333" stroke-width="0.625" stroke-linecap="round" stroke-linejoin="round"/>
<path d="M87.6055 173.362C87.6055 173.362 136.827 139.748 197.244 167.369L323.184 238.561C323.184 238.561 259.662 219.822 229.251 253.466L87.6055 173.362Z" fill="white"/>
<mask id="mask3_871_1308" style="mask-type:luminance" maskUnits="userSpaceOnUse" x="87" y="156" width="237" height="98">
<path fill-rule="evenodd" clip-rule="evenodd" d="M87.6055 173.362C87.6055 173.362 136.827 139.748 197.244 167.369L323.184 238.561C323.184 238.561 259.662 219.822 229.251 253.466L87.6055 173.362Z" fill="white"/>
</mask>
<g mask="url(#mask3_871_1308)">
<path d="M114.553 173.929L165.005 202.185C165.005 202.185 184.535 188.374 224.185 187.969L192.976 169.431C192.976 169.431 155.398 155.122 114.553 173.929Z" fill="#D6DCF2"/>
</g>
<path fill-rule="evenodd" clip-rule="evenodd" d="M87.6055 173.362C87.6055 173.362 136.827 139.748 197.244 167.369L323.184 238.561C323.184 238.561 259.662 219.822 229.251 253.466L87.6055 173.362Z" stroke="#333333" stroke-width="0.625" stroke-linecap="round" stroke-linejoin="round"/>
<path d="M174.593 211.447L177.997 213.273C177.997 213.273 204.679 193.765 228.615 193.522L225.606 191.479C225.606 191.479 196.166 194.976 174.593 211.447Z" fill="#D6DCF2"/>
<path d="M187.525 219.25L190.928 221.076C190.928 221.076 217.611 201.567 241.547 201.325L238.538 199.281C238.538 199.281 209.097 202.779 187.525 219.25Z" fill="#D6DCF2"/>
<path d="M199.659 226.869L203.062 228.695C203.062 228.695 229.745 209.187 253.681 208.944L250.672 206.9C250.672 206.9 221.231 210.398 199.659 226.869Z" fill="#D6DCF2"/>
<path d="M175.223 186.348L171.6 187.254" stroke="#333333" stroke-width="0.625"/>
<path d="M309.104 165.354L312.795 160.877" stroke="#333333" stroke-width="0.625"/>
<path d="M284.613 261.62C283.236 262.781 281.596 263.587 279.836 263.968" stroke="#333333" stroke-width="0.625"/>
<path d="M214.418 28.7356C214.284 25.0147 213.366 21.3641 211.724 18.0222C211.101 16.7536 210.376 15.5375 209.556 14.3859C203.44 5.77744 192.472 1.34502 181.621 4.07857C170.77 6.81212 163.206 15.9132 161.89 26.3945C161.712 27.7971 161.649 29.2118 161.7 30.6247C161.834 34.3455 162.752 37.9962 164.393 41.3381C170.831 41.131 179.477 40.0066 189.99 37.3583C200.502 34.7099 208.65 31.6035 214.418 28.7356Z" fill="#1B80FD"/>
<mask id="mask4_871_1308" style="mask-type:luminance" maskUnits="userSpaceOnUse" x="161" y="3" width="54" height="39">
<path fill-rule="evenodd" clip-rule="evenodd" d="M214.418 28.7356C214.284 25.0147 213.366 21.3641 211.724 18.0222C211.101 16.7536 210.376 15.5375 209.556 14.3859C203.44 5.77744 192.472 1.34502 181.621 4.07857C170.77 6.81212 163.206 15.9132 161.89 26.3945C161.712 27.7971 161.649 29.2118 161.7 30.6247C161.834 34.3455 162.752 37.9962 164.393 41.3381C170.831 41.131 179.477 40.0066 189.99 37.3583C200.502 34.7099 208.65 31.6035 214.418 28.7356Z" fill="white"/>
</mask>
<g mask="url(#mask4_871_1308)">
<path d="M171.081 -0.273634C227.217 3.0533 215.691 33.8717 175.664 40.2637C135.636 46.6558 228.565 36.0452 228.565 36.0452L227.047 5.45672L184.479 -2.81836L173.116 2.92712" fill="#1D62FC"/>
</g>
<path fill-rule="evenodd" clip-rule="evenodd" d="M214.418 28.7356C214.284 25.0147 213.366 21.3641 211.724 18.0222C211.101 16.7536 210.376 15.5375 209.556 14.3859C203.44 5.77744 192.472 1.34502 181.621 4.07857C170.77 6.81212 163.206 15.9132 161.89 26.3945C161.712 27.7971 161.649 29.2118 161.7 30.6247C161.834 34.3455 162.752 37.9962 164.393 41.3381C170.831 41.131 179.477 40.0066 189.99 37.3583C200.502 34.7099 208.65 31.6035 214.418 28.7356Z" stroke="#333333" stroke-width="0.625" stroke-linecap="round" stroke-linejoin="round"/>
<path d="M166.561 44.9742C172.678 53.583 183.645 58.0153 194.496 55.2816C205.347 52.5479 212.912 43.4469 214.228 32.9658C207.732 35.9777 199.616 38.7697 190.897 40.9664C182.177 43.1631 173.708 44.5493 166.561 44.9742Z" fill="#1B80FD"/>
<path fill-rule="evenodd" clip-rule="evenodd" d="M166.561 44.9742C172.678 53.583 183.645 58.0153 194.496 55.2816C205.347 52.5479 212.912 43.4469 214.228 32.9658C207.732 35.9777 199.616 38.7697 190.897 40.9664C182.177 43.1631 173.708 44.5493 166.561 44.9742Z" stroke="#333333" stroke-width="0.625" stroke-linecap="round" stroke-linejoin="round"/>
<path d="M228.43 19.5095C227.539 15.9648 222.561 14.1927 213.635 14.2443C212.335 14.2518 210.969 14.3019 209.556 14.3858C210.376 15.5374 211.101 16.7534 211.724 18.022C219.855 17.7606 224.46 18.9631 224.825 20.4177C225.191 21.8722 221.704 25.1133 214.418 28.7355C208.65 31.6035 200.502 34.7098 189.99 37.3581C179.477 40.0065 170.831 41.131 164.393 41.338C156.263 41.5997 151.658 40.397 151.292 38.9426C150.927 37.4881 154.414 34.2468 161.7 30.6246C161.649 29.2117 161.712 27.7971 161.89 26.3944C160.606 26.9896 159.379 27.5926 158.23 28.2023C150.343 32.3864 146.796 36.3059 147.688 39.8507C148.579 43.3956 153.557 45.1675 162.483 45.1159C163.783 45.1085 165.149 45.0585 166.561 44.9744C173.708 44.5494 182.177 43.1632 190.897 40.9665C199.616 38.7698 207.732 35.9778 214.228 32.9659C215.512 32.3706 216.739 31.7676 217.888 31.158C225.775 26.9738 229.322 23.0543 228.43 19.5095Z" fill="#FACCC4"/>
<mask id="mask5_871_1308" style="mask-type:luminance" maskUnits="userSpaceOnUse" x="147" y="14" width="82" height="32">
<path fill-rule="evenodd" clip-rule="evenodd" d="M228.43 19.5095C227.539 15.9648 222.561 14.1927 213.635 14.2443C212.335 14.2518 210.969 14.3019 209.556 14.3858C210.376 15.5374 211.101 16.7534 211.724 18.022C219.855 17.7606 224.46 18.9631 224.825 20.4177C225.191 21.8722 221.704 25.1133 214.418 28.7355C208.65 31.6035 200.502 34.7098 189.99 37.3581C179.477 40.0065 170.831 41.131 164.393 41.338C156.263 41.5997 151.658 40.397 151.292 38.9426C150.927 37.4881 154.414 34.2468 161.7 30.6246C161.649 29.2117 161.712 27.7971 161.89 26.3944C160.606 26.9896 159.379 27.5926 158.23 28.2023C150.343 32.3864 146.796 36.3059 147.688 39.8507C148.579 43.3956 153.557 45.1675 162.483 45.1159C163.783 45.1085 165.149 45.0585 166.561 44.9744C173.708 44.5494 182.177 43.1632 190.897 40.9665C199.616 38.7698 207.732 35.9778 214.228 32.9659C215.512 32.3706 216.739 31.7676 217.888 31.158C225.775 26.9738 229.322 23.0543 228.43 19.5095Z" fill="white"/>
</mask>
<g mask="url(#mask5_871_1308)">
<path d="M141.572 29.68C166.333 25.7757 163.958 36.9079 163.958 36.9079L170.064 23.0828L160.227 21.043" fill="#ED707B"/>
<path d="M202.795 10.5039C215.175 12.1953 216.532 21.0431 216.532 21.0431L206.017 23.0829L202.625 19.8343" fill="#ED707B"/>
</g>
<path fill-rule="evenodd" clip-rule="evenodd" d="M228.43 19.5095C227.539 15.9648 222.561 14.1927 213.635 14.2443C212.335 14.2518 210.969 14.3019 209.556 14.3858C210.376 15.5374 211.101 16.7534 211.724 18.022C219.855 17.7606 224.46 18.9631 224.825 20.4177C225.191 21.8722 221.704 25.1133 214.418 28.7355C208.65 31.6035 200.502 34.7098 189.99 37.3581C179.477 40.0065 170.831 41.131 164.393 41.338C156.263 41.5997 151.658 40.397 151.292 38.9426C150.927 37.4881 154.414 34.2468 161.7 30.6246C161.649 29.2117 161.712 27.7971 161.89 26.3944C160.606 26.9896 159.379 27.5926 158.23 28.2023C150.343 32.3864 146.796 36.3059 147.688 39.8507C148.579 43.3956 153.557 45.1675 162.483 45.1159C163.783 45.1085 165.149 45.0585 166.561 44.9744C173.708 44.5494 182.177 43.1632 190.897 40.9665C199.616 38.7698 207.732 35.9778 214.228 32.9659C215.512 32.3706 216.739 31.7676 217.888 31.158C225.775 26.9738 229.322 23.0543 228.43 19.5095Z" stroke="#333333" stroke-width="0.625" stroke-linecap="round" stroke-linejoin="round"/>
<path d="M184.942 16.0967C184.736 17.6071 184.192 19.0515 183.35 20.3223" stroke="#333333" stroke-width="0.625"/>
<path d="M200.339 44.2881L197.427 46.2829" stroke="#333333" stroke-width="0.625"/>
<path d="M331.305 163.13H355.902V180.231C355.902 186.454 350.857 191.498 344.635 191.498H342.573C336.35 191.498 331.305 186.454 331.305 180.231V163.13H331.305Z" fill="#E43334" stroke="#333333" stroke-width="0.625" stroke-linecap="round" stroke-linejoin="round"/>
<path d="M325.631 157.422H361.576V177.729C361.576 182.181 357.967 185.79 353.515 185.79H333.692C331.554 185.79 329.504 184.941 327.992 183.429C326.48 181.918 325.631 179.867 325.631 177.729V157.422H325.631Z" fill="#E43334"/>
<mask id="mask6_871_1308" style="mask-type:luminance" maskUnits="userSpaceOnUse" x="325" y="157" width="37" height="29">
<path fill-rule="evenodd" clip-rule="evenodd" d="M325.631 157.422H361.576V177.729C361.576 182.181 357.967 185.79 353.515 185.79H333.692C331.554 185.79 329.504 184.941 327.992 183.429C326.48 181.918 325.631 179.867 325.631 177.729V157.422H325.631Z" fill="white"/>
</mask>
<g mask="url(#mask6_871_1308)">
<path d="M328.927 187.117C319.502 158.815 345.138 164.238 366.627 163.13C388.117 162.022 353.432 155.041 353.432 155.041L325.631 157.422L322.707 169.947L324.264 184.853" fill="#C11F27"/>
</g>
<path fill-rule="evenodd" clip-rule="evenodd" d="M325.631 157.422H361.576V177.729C361.576 182.181 357.967 185.79 353.515 185.79H333.692C331.554 185.79 329.504 184.941 327.992 183.429C326.48 181.918 325.631 179.867 325.631 177.729V157.422H325.631Z" stroke="#333333" stroke-width="0.625" stroke-linecap="round" stroke-linejoin="round"/>
<path d="M378.857 109.853C378.857 90.5588 363.387 74.8811 344.184 74.5705C331.447 74.3771 319.593 81.0619 313.168 92.0619C306.743 103.062 306.743 116.671 313.168 127.67C318.965 137.568 322.174 148.768 322.174 160.241V160.241C322.174 160.881 322.693 161.4 323.333 161.401H363.874C364.181 161.401 364.476 161.278 364.693 161.061C364.91 160.843 365.032 160.549 365.032 160.241V160.241C365.032 148.905 367.993 137.73 373.833 128.017C377.13 122.533 378.868 116.252 378.857 109.853V109.853Z" fill="#FDD504"/>
<mask id="mask7_871_1308" style="mask-type:luminance" maskUnits="userSpaceOnUse" x="308" y="74" width="71" height="88">
<path fill-rule="evenodd" clip-rule="evenodd" d="M378.857 109.853C378.857 90.5588 363.387 74.8811 344.184 74.5705C331.447 74.3771 319.593 81.0619 313.168 92.0619C306.743 103.062 306.743 116.671 313.168 127.67C318.965 137.568 322.174 148.768 322.174 160.241V160.241C322.174 160.881 322.693 161.4 323.333 161.401H363.874C364.181 161.401 364.476 161.278 364.693 161.061C364.91 160.843 365.032 160.549 365.032 160.241V160.241C365.032 148.905 367.993 137.73 373.833 128.017C377.13 122.533 378.868 116.252 378.857 109.853V109.853Z" fill="white"/>
</mask>
<g mask="url(#mask7_871_1308)">
<path d="M319.879 79.9463C282.555 120.701 342.499 164.788 373.413 161.047C404.328 157.305 328.927 187.117 328.927 187.117L296.926 171.606L284.817 113.878" fill="#FCB006"/>
</g>
<path fill-rule="evenodd" clip-rule="evenodd" d="M378.857 109.853C378.857 90.5588 363.387 74.8811 344.184 74.5705C331.447 74.3771 319.593 81.0619 313.168 92.0619C306.743 103.062 306.743 116.671 313.168 127.67C318.965 137.568 322.174 148.768 322.174 160.241V160.241C322.174 160.881 322.693 161.4 323.333 161.401H363.874C364.181 161.401 364.476 161.278 364.693 161.061C364.91 160.843 365.032 160.549 365.032 160.241V160.241C365.032 148.905 367.993 137.73 373.833 128.017C377.13 122.533 378.868 116.252 378.857 109.853V109.853Z" stroke="#333333" stroke-width="0.625" stroke-linecap="round" stroke-linejoin="round"/>
<rect x="324.264" y="166.07" width="38.6787" height="5.5353" rx="2.53323" fill="white" stroke="#333333" stroke-width="0.625" stroke-linecap="round" stroke-linejoin="round"/>
<rect x="324.264" y="174.547" width="38.6787" height="5.5353" rx="2.53323" fill="white" stroke="#333333" stroke-width="0.625" stroke-linecap="round" stroke-linejoin="round"/>
<rect x="339.678" y="27.9961" width="7.85071" height="32.7993" rx="3.59629" fill="#FCB006" stroke="#333333" stroke-width="0.625" stroke-linecap="round" stroke-linejoin="round"/>
<rect x="264.158" y="111.446" width="7.85816" height="32.7682" rx="3.59629" transform="rotate(-90 264.158 111.446)" fill="#FCB006" stroke="#333333" stroke-width="0.625" stroke-linecap="round" stroke-linejoin="round"/>
<rect x="390.281" y="111.446" width="7.85816" height="32.7682" rx="3.59629" transform="rotate(-90 390.281 111.446)" fill="#FCB006" stroke="#333333" stroke-width="0.625" stroke-linecap="round" stroke-linejoin="round"/>
<rect x="284.64" y="54.0771" width="7.85444" height="32.7837" rx="3.59629" transform="rotate(-45.0272 284.64 54.0771)" fill="#FCB006" stroke="#333333" stroke-width="0.625" stroke-linecap="round" stroke-linejoin="round"/>
<rect x="379.374" y="77.2471" width="7.85444" height="32.7837" rx="3.59629" transform="rotate(-134.973 379.374 77.2471)" fill="#FCB006" stroke="#333333" stroke-width="0.625" stroke-linecap="round" stroke-linejoin="round"/>
<path d="M364.144 108.935C360.449 113.044 356.386 116.806 352.004 120.173" stroke="#333333" stroke-width="0.625"/>
<rect x="277.138" y="219.938" width="13.2452" height="29.0105" transform="rotate(-51.1563 277.138 219.938)" fill="#1AB995"/>
<mask id="mask8_871_1308" style="mask-type:luminance" maskUnits="userSpaceOnUse" x="277" y="209" width="32" height="30">
<rect x="277.138" y="219.938" width="13.2452" height="29.0105" transform="rotate(-51.1563 277.138 219.938)" fill="white"/>
</mask>
<g mask="url(#mask8_871_1308)">
<path d="M290.587 210.271C296.287 219.338 283.097 222.876 288.47 227.6C293.843 232.324 301.501 224.812 304.249 219.402C306.996 213.993 310.65 229.94 310.65 229.94L290.936 243.575L277.293 225.575L283.809 218.206" fill="#0FA379"/>
</g>
<rect x="277.138" y="219.938" width="13.2452" height="29.0105" transform="rotate(-51.1563 277.138 219.938)" stroke="#333333" stroke-width="0.625" stroke-linecap="round" stroke-linejoin="round"/>
<path d="M333.902 257.209V257.209C331.941 259.645 329.08 261.187 325.967 261.485C322.854 261.783 319.753 260.812 317.365 258.792L290.696 236.232L304.249 219.402L331.936 240.697C334.416 242.606 336.022 245.433 336.392 248.54C336.762 251.647 335.864 254.772 333.902 257.209Z" fill="#FCB006"/>
<mask id="mask9_871_1308" style="mask-type:luminance" maskUnits="userSpaceOnUse" x="290" y="219" width="47" height="43">
<path fill-rule="evenodd" clip-rule="evenodd" d="M333.902 257.209V257.209C331.941 259.645 329.08 261.187 325.967 261.485C322.854 261.783 319.753 260.812 317.365 258.792L290.696 236.232L304.249 219.402L331.936 240.697C334.416 242.606 336.022 245.433 336.392 248.54C336.762 251.647 335.864 254.772 333.902 257.209Z" fill="white"/>
</mask>
<g mask="url(#mask9_871_1308)">
<path d="M299.812 217.131C342.696 249.619 325.511 255.542 320.133 264.411C314.754 273.281 343.08 264.614 343.08 264.614L359.584 248.457L328.575 219.006L307.901 218.025" fill="#FDD504"/>
</g>
<path fill-rule="evenodd" clip-rule="evenodd" d="M333.902 257.209V257.209C331.941 259.645 329.08 261.187 325.967 261.485C322.854 261.783 319.753 260.812 317.365 258.792L290.696 236.232L304.249 219.402L331.936 240.697C334.416 242.606 336.022 245.433 336.392 248.54C336.762 251.647 335.864 254.772 333.902 257.209Z" stroke="#333333" stroke-width="0.625" stroke-linecap="round" stroke-linejoin="round"/>
<path fill-rule="evenodd" clip-rule="evenodd" d="M237.594 226.561C221.97 213.956 219.513 191.058 232.107 175.419C244.701 159.779 267.577 157.32 283.201 169.926C298.826 182.532 301.283 205.43 288.689 221.069C276.095 236.709 253.219 239.168 237.594 226.561ZM243.683 219.001C255.135 228.241 271.904 226.439 281.135 214.975C290.367 203.511 288.566 186.727 277.113 177.487C265.66 168.247 248.892 170.049 239.66 181.513C230.429 192.977 232.23 209.761 243.683 219.001Z" fill="#1AB995"/>
<path d="M232.107 175.419L231.864 175.223L231.864 175.223L232.107 175.419ZM237.594 226.561L237.398 226.805L237.398 226.805L237.594 226.561ZM281.135 214.975L281.378 215.171L281.378 215.171L281.135 214.975ZM231.864 175.223C219.161 190.996 221.639 214.09 237.398 226.805L237.79 226.318C222.3 213.821 219.864 191.12 232.35 175.615L231.864 175.223ZM237.398 226.805C253.157 239.519 276.23 237.039 288.932 221.265L288.445 220.873C275.959 236.378 253.281 238.816 237.79 226.318L237.398 226.805ZM288.932 221.265C301.634 205.491 299.156 182.397 283.398 169.683L283.005 170.169C298.495 182.667 300.931 205.368 288.445 220.873L288.932 221.265ZM283.398 169.683C267.638 156.968 244.566 159.449 231.864 175.223L232.35 175.615C244.836 160.11 267.515 157.672 283.005 170.169L283.398 169.683ZM280.892 214.779C271.768 226.108 255.197 227.889 243.879 218.758L243.486 219.244C255.074 228.593 272.039 226.769 281.378 215.171L280.892 214.779ZM243.879 218.758C232.56 209.626 230.78 193.038 239.904 181.709L239.417 181.317C230.077 192.915 231.899 209.895 243.486 219.244L243.879 218.758ZM239.904 181.709C249.027 170.379 265.598 168.598 276.917 177.73L277.309 177.244C265.722 167.895 248.757 169.719 239.417 181.317L239.904 181.709ZM276.917 177.73C288.235 186.862 290.015 203.449 280.892 214.779L281.378 215.171C290.718 203.573 288.896 186.592 277.309 177.244L276.917 177.73Z" fill="#333333"/>
<path d="M229.361 192.97C229.675 195.233 229.602 197.534 229.146 199.773" stroke="#333333" stroke-width="0.625"/>
<path d="M317.189 239.348L317.748 241.546" stroke="#333333" stroke-width="0.625"/>
<ellipse cx="101.19" cy="80.9635" rx="21.8519" ry="21.8727" fill="#FDD504" stroke="#333333" stroke-width="0.625" stroke-linecap="round" stroke-linejoin="round"/>
<ellipse cx="382.466" cy="257.068" rx="9.93614" ry="9.94556" fill="#1AB995" stroke="#333333" stroke-width="0.625" stroke-linecap="round" stroke-linejoin="round"/>
<ellipse cx="291.315" cy="18.0509" rx="17.0347" ry="17.0509" fill="#E43334" stroke="#333333" stroke-width="0.625" stroke-linecap="round" stroke-linejoin="round"/>
<path d="M263.922 40.2927C262.647 39.3365 261.047 38.8184 259.403 38.7209L245.208 37.8803C239.192 37.524 234.673 42.8221 236.511 48.075L241.054 61.0558L241.092 61.8656L241.251 61.6167L242.569 65.3852C242.569 65.3852 251.71 69.1399 263.182 56.766C271.308 48.0013 267.08 42.6618 263.922 40.2927Z" fill="#485065" stroke="#333333" stroke-width="0.625" stroke-linecap="round" stroke-linejoin="round"/>
<path d="M243.881 99.3097L265.136 125.099C267.457 127.914 270.991 128.591 273.699 126.739L297.5 110.455C297.5 110.455 305.939 108.555 303.523 104.259C303.523 104.259 305.364 101.023 301.526 99.4512C301.526 99.4512 301.708 94.42 297.501 95.915C297.501 95.915 296.269 94.1855 294.633 97.0305C293.971 98.2249 293.573 99.5472 293.465 100.908L293.381 101.817L273.413 112.776L259.72 93.1816L243.881 99.3097Z" fill="#F9C1BB"/>
<mask id="mask10_871_1308" style="mask-type:luminance" maskUnits="userSpaceOnUse" x="243" y="93" width="61" height="35">
<path fill-rule="evenodd" clip-rule="evenodd" d="M243.881 99.3097L265.136 125.099C267.457 127.914 270.991 128.591 273.699 126.739L297.5 110.455C297.5 110.455 305.939 108.555 303.523 104.259C303.523 104.259 305.364 101.023 301.526 99.4512C301.526 99.4512 301.708 94.42 297.501 95.915C297.501 95.915 296.269 94.1855 294.633 97.0305C293.971 98.2249 293.573 99.5472 293.465 100.908L293.381 101.817L273.413 112.776L259.72 93.1816L243.881 99.3097Z" fill="white"/>
</mask>
<g mask="url(#mask10_871_1308)">
<path d="M266.766 103.036C274.005 118.227 251.298 125.088 252.342 131.68C253.386 138.271 247.874 118.362 247.874 118.362L254.822 105.717" fill="#ED707B"/>
</g>
<path fill-rule="evenodd" clip-rule="evenodd" d="M243.881 99.3097L265.136 125.099C267.457 127.914 270.991 128.591 273.699 126.739L297.5 110.455C297.5 110.455 305.939 108.555 303.523 104.259C303.523 104.259 305.364 101.023 301.526 99.4512C301.526 99.4512 301.708 94.42 297.501 95.915C297.501 95.915 296.269 94.1855 294.633 97.0305C293.971 98.2249 293.573 99.5472 293.465 100.908L293.381 101.817L273.413 112.776L259.72 93.1816L243.881 99.3097Z" stroke="#333333" stroke-width="0.625" stroke-linecap="round" stroke-linejoin="round"/>
<path d="M254.37 120.651C254.37 120.651 270.121 113.14 267.538 104.369L255.423 84.9512L234.435 93.4555L254.37 120.651Z" fill="#1AB995"/>
<mask id="mask11_871_1308" style="mask-type:luminance" maskUnits="userSpaceOnUse" x="234" y="84" width="34" height="37">
<path fill-rule="evenodd" clip-rule="evenodd" d="M254.37 120.651C254.37 120.651 270.121 113.14 267.538 104.369L255.423 84.9512L234.435 93.4555L254.37 120.651Z" fill="white"/>
</mask>
<g mask="url(#mask11_871_1308)">
<path d="M248.921 93.1822C244.498 107.184 252.658 112.656 254.37 120.651C256.082 128.647 230.561 112.478 230.561 112.478L232.463 98.76L249.56 89.7939" fill="#0FA379"/>
<path d="M245.322 118.993C263.516 116.88 266.536 100.073 266.536 100.073L269.528 102.801L268.576 114.229" fill="white"/>
<path d="M245.322 118.993C263.516 116.88 266.536 100.073 266.536 100.073L269.528 102.801L268.576 114.229" stroke="#333333" stroke-width="0.625" stroke-linecap="round" stroke-linejoin="round"/>
</g>
<path fill-rule="evenodd" clip-rule="evenodd" d="M254.37 120.651C254.37 120.651 270.121 113.14 267.538 104.369L255.423 84.9512L234.435 93.4555L254.37 120.651Z" stroke="#333333" stroke-width="0.625" stroke-linecap="round" stroke-linejoin="round"/>
<path d="M133.679 140.909C133.063 140.565 113.858 133.667 113.858 133.667L107.493 144.453L111.559 146.159L129.445 153.404L133.679 140.909Z" fill="#F9C1BB"/>
<mask id="mask12_871_1308" style="mask-type:luminance" maskUnits="userSpaceOnUse" x="107" y="133" width="27" height="21">
<path fill-rule="evenodd" clip-rule="evenodd" d="M133.679 140.909C133.063 140.565 113.858 133.667 113.858 133.667L107.493 144.453L111.559 146.159L129.445 153.404L133.679 140.909Z" fill="white"/>
</mask>
<g mask="url(#mask12_871_1308)">
<path d="M130.619 136.904C120.942 135.749 126.619 145.131 114.006 149.587C101.394 154.043 119.199 153.403 119.199 153.403L120.586 152.685L124.449 142.911" fill="#ED707B"/>
</g>
<path fill-rule="evenodd" clip-rule="evenodd" d="M133.679 140.909C133.063 140.565 113.858 133.667 113.858 133.667L107.493 144.453L111.559 146.159L129.445 153.404L133.679 140.909Z" stroke="#333333" stroke-width="0.625" stroke-linecap="round" stroke-linejoin="round"/>
<path d="M91.5645 167.568C99.7403 169.309 106.524 147.303 112.651 146.805C112.651 146.805 115.994 136.702 119.574 135.519L114.028 132.222C111.322 130.613 107.895 131.816 106.504 134.862L91.5645 167.568Z" fill="#485065" stroke="#333333" stroke-width="0.625" stroke-linecap="round" stroke-linejoin="round"/>
<path d="M126.209 137.623C122.941 137.623 118.544 155.957 118.544 155.957L161.356 178.726C165.704 181.039 170.852 180.506 174.737 177.341L229.766 132.514L203.716 108.062L164.367 152.813C164.367 152.813 129.476 137.623 126.209 137.623Z" fill="#1A80FD"/>
<mask id="mask13_871_1308" style="mask-type:luminance" maskUnits="userSpaceOnUse" x="118" y="108" width="112" height="73">
<path fill-rule="evenodd" clip-rule="evenodd" d="M126.209 137.623C122.941 137.623 118.544 155.957 118.544 155.957L161.356 178.726C165.704 181.039 170.852 180.506 174.737 177.341L229.766 132.514L203.716 108.062L164.367 152.813C164.367 152.813 129.476 137.623 126.209 137.623Z" fill="white"/>
</mask>
<g mask="url(#mask13_871_1308)">
<path d="M123.75 162.142C125.11 154.52 129.601 137.097 133.679 138.867" stroke="white" stroke-width="0.625" stroke-linecap="round" stroke-linejoin="round"/>
<path d="M129.462 145.128C129.462 145.128 163.73 158.876 164.818 159.148C165.906 159.42 199.223 123.35 199.223 123.35" stroke="white" stroke-width="0.625" stroke-linecap="round" stroke-linejoin="round"/>
<ellipse cx="171.603" cy="182.811" rx="15.6233" ry="9.14102" fill="#FDD504" stroke="#333333" stroke-width="0.625" stroke-linecap="round" stroke-linejoin="round"/>
</g>
<path fill-rule="evenodd" clip-rule="evenodd" d="M126.209 137.623C122.941 137.623 118.544 155.957 118.544 155.957L161.356 178.726C165.704 181.039 170.852 180.506 174.737 177.341L229.766 132.514L203.716 108.062L164.367 152.813C164.367 152.813 129.476 137.623 126.209 137.623Z" stroke="#333333" stroke-width="0.625" stroke-linecap="round" stroke-linejoin="round"/>
<path d="M315.217 170.888C315.74 171.393 333.009 183.393 333.009 183.393L342.046 174.654L338.452 171.875L322.576 159.9L315.217 170.888Z" fill="#F9C1BB"/>
<mask id="mask14_871_1308" style="mask-type:luminance" maskUnits="userSpaceOnUse" x="315" y="159" width="28" height="25">
<path fill-rule="evenodd" clip-rule="evenodd" d="M315.217 170.888C315.74 171.393 333.009 183.393 333.009 183.393L342.046 174.654L338.452 171.875L322.576 159.9L315.217 170.888Z" fill="white"/>
</mask>
<g mask="url(#mask14_871_1308)">
<path d="M317.996 181.89C328.172 177.343 328.631 162.607 328.631 162.607L315.217 168.611" fill="#ED707B"/>
</g>
<path fill-rule="evenodd" clip-rule="evenodd" d="M315.217 170.888C315.74 171.393 333.009 183.393 333.009 183.393L342.046 174.654L338.452 171.875L322.576 159.9L315.217 170.888Z" stroke="#333333" stroke-width="0.625" stroke-linecap="round" stroke-linejoin="round"/>
<path d="M363.677 156.557C356.022 152.61 343.727 172.148 337.534 170.945C337.534 170.945 331.663 179.852 327.818 180.017L332.474 184.752C334.746 187.062 338.444 186.836 340.594 184.256L363.677 156.557Z" fill="#485065" stroke="#333333" stroke-width="0.625" stroke-linecap="round" stroke-linejoin="round"/>
<path d="M312.448 181.89C313.352 182.134 331.701 168.866 328.919 161.384L277.36 122.39C275.38 120.883 273.082 119.847 270.641 119.361L196.41 93.5117L188.071 115.743C186.739 119.865 186.958 124.444 188.89 128.278C192.003 134.458 198.01 138.65 204.903 138.794L261.121 144.283L312.448 181.89Z" fill="#1A80FD"/>
<mask id="mask15_871_1308" style="mask-type:luminance" maskUnits="userSpaceOnUse" x="187" y="93" width="143" height="89">
<path fill-rule="evenodd" clip-rule="evenodd" d="M312.448 181.89C313.352 182.134 331.701 168.866 328.919 161.384L277.36 122.39C275.38 120.883 273.082 119.847 270.641 119.361L196.41 93.5117L188.071 115.743C186.739 119.865 186.958 124.444 188.89 128.278C192.003 134.458 198.01 138.65 204.903 138.794L261.121 144.283L312.448 181.89Z" fill="white"/>
</mask>
<g mask="url(#mask15_871_1308)">
<path d="M230.315 111.991C196.271 110.79 184.264 114.988 199.298 140.368C214.332 165.748 184.376 137.52 184.376 137.52L187.103 83.8281L210.286 103.705" fill="#1D62FC"/>
<path d="M298.357 180.15C315.217 170.887 323.65 157.856 324.466 149.586" stroke="white" stroke-width="0.625" stroke-linecap="round" stroke-linejoin="round"/>
<path d="M198.628 104.553C190.876 134.084 207.246 137.702 260.416 133.667L311.445 170.873" stroke="white" stroke-width="0.625" stroke-linecap="round" stroke-linejoin="round"/>
<path d="M199.325 120.651C212.481 122.124 210.136 111.086 210.136 111.086" stroke="white" stroke-width="0.625" stroke-linecap="round" stroke-linejoin="round"/>
<ellipse cx="282.694" cy="117.204" rx="15.6233" ry="9.14102" fill="#FDD504" stroke="#333333" stroke-width="0.625" stroke-linecap="round" stroke-linejoin="round"/>
</g>
<path fill-rule="evenodd" clip-rule="evenodd" d="M312.448 181.89C313.352 182.134 331.701 168.866 328.919 161.384L277.36 122.39C275.38 120.883 273.082 119.847 270.641 119.361L196.41 93.5117L188.071 115.743C186.739 119.865 186.958 124.444 188.89 128.278C192.003 134.458 198.01 138.65 204.903 138.794L261.121 144.283L312.448 181.89Z" stroke="#333333" stroke-width="0.625" stroke-linecap="round" stroke-linejoin="round"/>
<path d="M255.815 85.7197C255.815 85.7197 242.996 60.5472 230.272 57.0566C230.272 57.0566 215.708 72.389 189.988 98.3044C208.905 115.22 230.707 110.473 230.707 110.473C230.707 110.473 241.613 101.937 249.051 94.6207" fill="#1AB995"/>
<mask id="mask16_871_1308" style="mask-type:luminance" maskUnits="userSpaceOnUse" x="189" y="57" width="67" height="55">
<path fill-rule="evenodd" clip-rule="evenodd" d="M255.815 85.7197C255.815 85.7197 242.996 60.5472 230.272 57.0566C230.272 57.0566 215.708 72.389 189.988 98.3044C208.905 115.22 230.707 110.473 230.707 110.473C230.707 110.473 241.613 101.937 249.051 94.6207" fill="white"/>
</mask>
<g mask="url(#mask16_871_1308)">
<ellipse cx="242.452" cy="68.8679" rx="12.484" ry="7.53057" transform="rotate(-82.5462 242.452 68.8679)" fill="white" stroke="#333333" stroke-width="0.625" stroke-linecap="round" stroke-linejoin="round"/>
<ellipse cx="243.881" cy="67.0797" rx="12.484" ry="7.15149" transform="rotate(-82.5451 243.881 67.0797)" fill="#F9C1BB" stroke="#333333" stroke-width="0.625" stroke-linecap="round" stroke-linejoin="round"/>
<path d="M224.26 81.0008C208.046 80.7406 178.379 110.658 229.391 110.694C280.403 110.73 230.706 110.473 230.706 110.473L206.419 117.204L180.508 99.1497L197.567 78.3561L208.858 75.9502L224.26 81.0008Z" fill="#0FA379"/>
<path d="M229.896 75.2617L220.301 88.9512L243.936 93.8906L229.896 75.2617V75.2617Z" fill="white"/>
<mask id="mask17_871_1308" style="mask-type:luminance" maskUnits="userSpaceOnUse" x="220" y="75" width="24" height="19">
<path fill-rule="evenodd" clip-rule="evenodd" d="M229.896 75.2617L220.301 88.9512L243.936 93.8906L229.896 75.2617V75.2617Z" fill="white"/>
</mask>
<g mask="url(#mask17_871_1308)">
<rect x="230.911" y="68.7412" width="6.07215" height="27.6297" transform="rotate(35.0765 230.911 68.7412)" fill="#2F387E" stroke="#333333" stroke-width="0.625" stroke-linecap="round" stroke-linejoin="round"/>
</g>
<path fill-rule="evenodd" clip-rule="evenodd" d="M229.896 75.2617L220.301 88.9512L243.936 93.8906L229.896 75.2617V75.2617Z" stroke="#333333" stroke-width="0.625" stroke-linecap="round" stroke-linejoin="round"/>
</g>
<path d="M255.815 85.7197C255.815 85.7197 242.996 60.5472 230.272 57.0566C230.272 57.0566 215.708 72.389 189.988 98.3044C208.905 115.22 230.707 110.473 230.707 110.473C230.707 110.473 241.613 101.937 249.051 94.6207" stroke="#333333" stroke-width="0.625" stroke-linecap="round" stroke-linejoin="round"/>
<path d="M224.152 57.0063L184.935 56.0663C180.654 55.9637 176.853 58.6717 175.726 62.6267L165.825 97.3942C165.825 97.3942 157.953 107.49 162.441 109.174C162.441 109.174 163.164 113.431 167.922 111.154C167.922 111.154 171.541 115.311 174.334 110.263C174.334 110.263 178.081 108.828 177.664 104.309C177.517 102.917 177 101.589 176.166 100.463V100.463L186.508 73.4386L214.017 76.4083L224.152 57.0063Z" fill="#F9C1BB"/>
<mask id="mask18_871_1308" style="mask-type:luminance" maskUnits="userSpaceOnUse" x="161" y="56" width="64" height="57">
<path fill-rule="evenodd" clip-rule="evenodd" d="M224.152 57.0063L184.935 56.0663C180.654 55.9637 176.853 58.6717 175.726 62.6267L165.825 97.3942C165.825 97.3942 157.953 107.49 162.441 109.174C162.441 109.174 163.164 113.431 167.922 111.154C167.922 111.154 171.541 115.311 174.334 110.263C174.334 110.263 178.081 108.828 177.664 104.309C177.517 102.917 177 101.589 176.166 100.463V100.463L186.508 73.4386L214.017 76.4083L224.152 57.0063Z" fill="white"/>
</mask>
<g mask="url(#mask18_871_1308)">
<path d="M197.057 56.1219C192.247 54.6776 193.083 69.8612 189.008 73.7082C184.933 77.5551 196.443 80.2249 196.443 80.2249L199.513 66.8223" fill="#ED707B"/>
</g>
<path fill-rule="evenodd" clip-rule="evenodd" d="M224.152 57.0063L184.935 56.0663C180.654 55.9637 176.853 58.6717 175.726 62.6267L165.825 97.3942C165.825 97.3942 157.953 107.49 162.441 109.174C162.441 109.174 163.164 113.431 167.922 111.154C167.922 111.154 171.541 115.311 174.334 110.263C174.334 110.263 178.081 108.828 177.664 104.309C177.517 102.917 177 101.589 176.166 100.463V100.463L186.508 73.4386L214.017 76.4083L224.152 57.0063Z" stroke="#333333" stroke-width="0.625" stroke-linecap="round" stroke-linejoin="round"/>
<path d="M230.64 57.1642L195.159 56.0635C195.159 56.0635 188.982 74.3586 197.061 78.4691L224.152 80.7599" fill="#1AB995"/>
<mask id="mask19_871_1308" style="mask-type:luminance" maskUnits="userSpaceOnUse" x="192" y="56" width="39" height="25">
<path fill-rule="evenodd" clip-rule="evenodd" d="M230.64 57.1642L195.159 56.0635C195.159 56.0635 188.982 74.3586 197.061 78.4691L224.152 80.7599" fill="white"/>
</mask>
<g mask="url(#mask19_871_1308)">
<path d="M202.079 54.0667C193.812 61.1701 196.648 79.0161 202.491 78.9279C208.334 78.8397 192.605 82.651 192.605 82.651L189.432 58.1502L199.223 52.3105" fill="white"/>
<path d="M202.079 54.0667C193.812 61.1701 196.648 79.0161 202.491 78.9279C208.334 78.8397 192.605 82.651 192.605 82.651L189.432 58.1502L199.223 52.3105" stroke="#333333" stroke-width="0.625" stroke-linecap="round" stroke-linejoin="round"/>
</g>
<path d="M230.64 57.1642L195.159 56.0635C195.159 56.0635 188.982 74.3586 197.061 78.4691L224.152 80.7599" stroke="#333333" stroke-width="0.625" stroke-linecap="round" stroke-linejoin="round"/>
<path d="M247.369 74.8822L258.24 61.0942L246.157 55.5029L239.199 63.4103" fill="#F9C1BB"/>
<mask id="mask20_871_1308" style="mask-type:luminance" maskUnits="userSpaceOnUse" x="239" y="55" width="20" height="20">
<path fill-rule="evenodd" clip-rule="evenodd" d="M247.369 74.8822L258.24 61.0942L246.157 55.5029L239.199 63.4103" fill="white"/>
</mask>
<g mask="url(#mask20_871_1308)">
<path d="M247.239 58.8096C249.925 63.8889 251.719 68.6169 250.484 71.7325C249.25 74.8481 256.212 70.2926 256.212 70.2926L258.488 64.2599L247.239 58.8096" fill="#ED707B"/>
</g>
<path d="M247.369 74.8822L258.24 61.0942L246.157 55.5029L239.199 63.4103" stroke="#333333" stroke-width="0.625" stroke-linecap="round" stroke-linejoin="round"/>
<path d="M249.389 63.3391C253.04 64.3639 260.165 65.1255 261.618 63.0712C264.909 58.4197 262.56 45.2505 258.136 42.4912C259.236 51.2444 250.924 54.2891 246.529 55.2794L246.682 58.5298" fill="#F9C1BB"/>
<path d="M249.389 63.3391C253.04 64.3639 260.165 65.1255 261.618 63.0712C264.909 58.4197 262.56 45.2505 258.136 42.4912C259.236 51.2444 250.924 54.2891 246.529 55.2794L246.682 58.5298" stroke="#333333" stroke-width="0.625" stroke-linecap="round" stroke-linejoin="round"/>
<path d="M249.956 54.8141C243.753 48.0433 239.274 56.961 247.458 58.6949Z" fill="#F9C1BB"/>
<path d="M249.956 54.8141C243.753 48.0433 239.274 56.961 247.458 58.6949" stroke="#333333" stroke-width="0.625" stroke-linecap="round" stroke-linejoin="round"/>
<path d="M258.301 50.0432V50.0432C258.811 49.9559 259.296 50.299 259.383 50.8095L259.651 52.3737C259.738 52.8842 259.395 53.3688 258.884 53.4561V53.4561C258.374 53.5434 257.889 53.2003 257.802 52.6898L257.534 51.1255C257.447 50.615 257.79 50.1304 258.301 50.0432L258.301 50.0432Z" fill="#333333"/>
<path d="M258.596 46.8074C255.782 47.1607 255.359 48.4255 257.132 48.3195C258.905 48.2134 260.434 46.5766 258.596 46.8074Z" fill="#333333"/>
<path d="M261.101 51.4131C264.875 53.014 264.229 56.8151 261.724 56.3665Z" fill="#F9C1BB"/>
<path d="M261.101 51.4131C264.875 53.014 264.229 56.8151 261.724 56.3665" stroke="#333333" stroke-width="0.625" stroke-linecap="round" stroke-linejoin="round"/>
<ellipse opacity="0.27" cx="255.613" cy="54.5498" rx="2.13541" ry="1.57617" fill="#ED707B"/>
<path d="M256.894 56.6396C257.707 57.5883 258.972 58.0185 260.195 57.7622Z" fill="#F9C1BB"/>
<path d="M256.894 56.6396C257.707 57.5883 258.972 58.0185 260.195 57.7622" stroke="#BA424D" stroke-width="0.625" stroke-linecap="round" stroke-linejoin="round"/>
<path d="M247.359 54.9761C247.173 54.6605 246.816 54.4879 246.454 54.5392C246.092 54.5905 245.796 54.8555 245.706 55.2101C245.616 55.5647 245.749 55.9386 246.043 56.1567" stroke="#333333" stroke-width="0.625"/>
<path d="M248.125 40.9922C248.695 42.0543 248.371 43.5125 247.405 44.2324" stroke="#333333" stroke-width="0.625"/>
<path d="M210.137 95.0527C210.453 97.039 211.477 98.844 213.018 100.136" stroke="#333333" stroke-width="0.625"/>
<path d="M256.996 99.1152L256.189 102.112" stroke="#333333" stroke-width="0.625"/>
<path d="M261.12 143.771L261.904 139.682" stroke="#333333" stroke-width="0.625"/>
<path d="M164.597 153.001L165.392 154.915" stroke="#333333" stroke-width="0.625"/>
<path d="M225.56 123.465C222.959 125.538 219.963 127.06 216.754 127.935" stroke="#333333" stroke-width="0.625"/>
<path d="M112.739 154.79C113.048 152.07 112.035 149.366 110.013 147.52C108.423 153.299 107.041 159.13 105.867 165.013" stroke="#333333" stroke-width="0.625"/>
<path d="M338.629 165.606L339.691 171.226C342.292 168.291 344.671 165.165 346.806 161.875" stroke="#333333" stroke-width="0.625"/>
<defs>
<linearGradient id="paint0_linear_871_1308" x1="60" y1="15" x2="60" y2="815" gradientUnits="userSpaceOnUse">
<stop stop-color="#B083EB"/>
<stop offset="1" stop-color="#4A00AA"/>
</linearGradient>
</defs>
</svg>
