<svg xmlns="http://www.w3.org/2000/svg" xml:space="preserve" width="2000" height="265" data-id="lg_XJZB6hrNttbSJQxhxh" data-version="1" viewBox="0 0 2000 265"><g data-padding="20"><g transform="translate(10 4.724)scale(.96435)"><path d="m790.257 160.511 5.953 22.106a22.62 22.62 0 0 0 15.946 15.945l22.105 5.953-22.105 5.954a22.62 22.62 0 0 0-15.946 15.945l-5.953 22.106-5.953-22.106a22.62 22.62 0 0 0-15.946-15.945l-22.101-5.958 22.106-5.953a22.62 22.62 0 0 0 15.945-15.946Zm50.7 40.652 4.33 16.076a16.45 16.45 0 0 0 11.597 11.597l16.077 4.33-16.077 4.33a16.45 16.45 0 0 0-11.596 11.597l-4.33 16.076-4.33-16.076a16.45 16.45 0 0 0-11.596-11.597l-16.074-4.333 16.077-4.33a16.45 16.45 0 0 0 11.597-11.596ZM1262.938-.17l5.953 22.106a22.62 22.62 0 0 0 15.946 15.945l22.105 5.953-22.105 5.954a22.62 22.62 0 0 0-15.946 15.945l-5.953 22.106-5.953-22.106a22.62 22.62 0 0 0-15.946-15.945l-22.101-5.958 22.106-5.953a22.62 22.62 0 0 0 15.945-15.946Z"/><rect width="397.525" height="127.803" x="433.951" y="-63.752" fill="none" rx="0" ry="0" transform="translate(289.92 131)scale(1.18)"/><path stroke="#000" stroke-width="2.018" d="m859.309 82.747.13 12.662q0 1.298 1.44 1.298 4.248 0 6.679-2.36t2.43-5.582-2.3-5.546q-2.29-2.324-6.738-2.324-1.64 0-1.64 1.852Zm17.925 20.462q1.31 1.368 9.239 10.336.484.614.484 1.086 0 1.782-1.57 1.782-3.634.07-7.292.07t-7.292-.07q-1.983 0-3.623-1.57l-5.888-8.897q-.342-.413-.826-.554-1.086-.402-1.086.896v6.974q0 2.95-3.87 3.15-3.87.213-8.45.213-4.59 0-11.091-.342-1.982-.142-3.186-1.369-1.192-1.239-1.404-2.808-.543-6.03-.543-18.927t.413-18.786q.413-5.888 5.947-5.959 5.204-.059 14.172-.059t14.856.13q8.484.141 13.889 6.301t5.404 13.89q0 4.518-2.088 8.353t-6.195 6.16Zm21.558 13.145q-1.911 0-3.245-1.263t-1.71-4.177q-.378-2.903-.378-17.452 0-14.538.483-18.986.543-5.747 4.85-5.888 4.933-.142 40.864-.142 4.035 0 4.035 5.133 0 4.047-3.552 4.047h-15.056q-1.44 0-2.301.956-.85.956-.85 2.466v4.921q0 2.053 1.84 2.053h12.462q1.097 0 1.675.213.578.2 1.062 1.191t.484 3.257q0 2.254-.79 3.01-.791.754-2.573.754H924.94q-1.711 0-2.36.85-.65.861-.65 2.631v3.363q0 2.94 2.809 2.94h17.04q1.227 0 2.183.72.967.72.967 3.15t-1.168 4.341-2.738 1.912Zm96.642-44.687 22.385 37.843q1.369 2.266 1.369 3.8 0 1.545-1.24 2.3-1.227.744-2.867.744h-22.042q-3.351 0-4.307-1.227-.283-.413-.755-1.44l-1.983-4.236q-.897-1.994-4.177-2.266h-12.933q-1.44 0-2.195.272-.755.283-1.227 1.24l-2.678 5.545q-.685 1.227-1.5 1.675-.825.437-2.394.437h-6.16q-2.667 0-2.88-1.912-.07-.27-.07-.542 0-1.582 1.027-3.02l21.428-37.773q3.08-5.345 9.995-5.345h5.475q5.475 0 7.73 3.905ZM973.262 89.19l-3.15 6.23q-.272.614-.272 1.086 0 1.782 1.71 1.782h6.23q1.429 0 1.984-.72.543-.72.543-1.262 0-.543-.201-1.098l-2.608-5.888q-.814-1.77-2.112-1.77-1.31 0-2.124 1.64Zm83.897 27.022q-4.59.413-13.145.413t-11.67-.248q-3.116-.236-4.685-1.12-1.581-.897-1.711-2.809-.413-7.399-.413-16.874t.27-20.084q.143-6.572 6.09-6.985 4.177-.272 12.803-.272t13.51.236q4.898.248 9.453 2.266t7.292 5.227q5.676 6.644 5.676 15.4 0 9.24-5.96 16.496-2.866 3.493-7.421 5.746-4.555 2.266-10.09 2.608Zm-3.08-32.993v16.568q0 .542.4 1.026.414.472 1.099.472 4.377 0 6.737-3.009 2.372-3.009 2.372-7.115 0-4.107-2.16-7.15-2.16-3.045-5.781-3.045-.897 0-1.37.07-1.297.343-1.297 2.183Zm38.469-14.773h18.35q2.867 0 3.787 1.44.932 1.44 1.239 5.923t.307 17.382q0 12.897-.543 18.927-.212 1.57-1.404 2.808-1.204 1.227-3.186 1.37-3.906.27-9.04.27t-9.71-.27q-1.983-.143-3.186-1.37-1.192-1.239-1.405-2.808-.542-6.03-.542-18.927t.306-17.382q.307-4.484 1.228-5.923.932-1.44 3.8-1.44Zm78.28 0h7.328q2.325 0 3.245.755.932.755 1.003 3.08.4 10.408.4 22.385t-.471 17.523q-.141 1.57-1.203 2.867t-2.773 1.298h-11.423q-2.395 0-5.274-1.71-15.871-9.37-19.978-11.423-.826-.343-1.345.236-.507.579-.507 2.16v7.6q0 1.296-.956 2.052-1.44 1.156-7.4 1.156-1.64 0-3.21-.094-1.58-.106-2.571-1.404-.991-1.31-1.062-2.808-.2-8.213-.2-20.638t.07-16.19.885-5.298q.826-1.546 3.15-1.546h7.529q2.325 0 4.79 1.31 21.218 11.01 24.78 12.79 1.158.556 1.842.142t.684-1.51v-9.582q0-1.37.72-2.254.72-.897 1.947-.897Zm58.742 11.08q-6.16 0-8.661 3.186-2.502 3.174-2.502 10.09 0 10.88 6.372 10.88 1.298 0 1.71-.06-.825 0-1.332-2.88-.52-2.879-.52-6.018 0-3.15 1.71-4.07 1.712-.933 4.757-.933t4.248.036q1.192.035 2.737.271 1.534.248 2.36.72 1.912 1.097 1.912 3.292v9.983q0 5.345-1.912 8.531-1.911 3.174-7.186 3.73-7.387.742-22.585.742-6.09 0-10.443-1.91-4.342-1.913-6.738-5.335-4.378-6.372-4.378-16.19t6.302-17.487q6.289-7.67 16.767-8.213 7.187-.413 10.396-.413 11.706 0 16.638 1.44 3.35.956 3.35 5.404 0 5.96-3.491 5.96-1.098-.072-4.378-.414-3.292-.342-5.133-.342ZM845.94 180.995v5.747q0 2.938-4 3.15-4 .201-8.697.201-4.684 0-10.702-.342-1.983-.142-3.186-1.369-1.192-1.227-1.405-2.808-.542-6.018-.542-18.928 0-12.897.413-18.785.4-5.877 5.947-5.947 6.372-.142 13.617-.142 7.257 0 15.706.212 8.46.201 13.794 6.36 5.345 6.16 5.345 13.547 0 7.4-4.731 12.19-4.72 4.79-13.818 4.79h-5.346q-.885 0-1.64.614-.755.613-.755 1.51Zm-.06-24.78.13 12.662q0 1.298 1.44 1.298 4.248 0 6.667-2.36 2.43-2.36 2.43-5.582 0-3.21-2.288-5.534-2.29-2.336-6.738-2.336-1.64 0-1.64 1.852Zm61.526 2.195-.07 13.688q0 3.01.92 4.472.932 1.475 3.87 1.475h17.31q3.15.071 3.15 4.791 0 3.634-.884 5.275-.896 1.64-3.634 1.71-9.64.272-19.092.272-9.44 0-24.084-.142-2.466 0-4.012-1.19-1.534-1.205-1.747-3.317-.542-5.96-.542-18.798 0-12.826.306-17.31.307-4.484 1.263-5.96.968-1.462 3.764-1.462h18.35q2.867 0 3.799 1.498.92 1.51 1.12 4.862.213 3.351.213 10.136Zm74.103-13.274 22.385 37.854q1.368 2.253 1.368 3.8 0 1.533-1.24 2.288-1.226.756-2.866.756h-22.042q-3.352 0-4.307-1.24-.272-.4-.756-1.427l-1.982-4.248q-.897-1.983-4.177-2.254h-12.933q-1.44 0-2.195.271-.755.272-1.227 1.228l-2.667 5.546q-.684 1.227-1.51 1.675-.826.45-2.396.45h-6.16q-2.666 0-2.878-1.925-.06-.27-.06-.543 0-1.569 1.027-3.009l21.418-37.782q3.08-5.334 9.995-5.334h5.475q5.475 0 7.729 3.894Zm-22.172 17.522-3.15 6.23q-.272.614-.272 1.098 0 1.782 1.71 1.782h6.23q1.44 0 1.984-.72.542-.72.542-1.274 0-.543-.2-1.086l-2.596-5.888q-.826-1.782-2.124-1.782t-2.124 1.64Zm98.838-20.732h7.328q2.324 0 3.245.755.932.743.99 3.08.414 10.395.414 22.372t-.472 17.523q-.142 1.57-1.204 2.88-1.062 1.298-2.773 1.298h-11.422q-2.396 0-5.275-1.71-15.883-9.382-19.99-11.436-.813-.342-1.332.236-.508.59-.508 2.16v7.6q0 1.297-.956 2.052-1.44 1.168-7.398 1.168-1.64 0-3.21-.106-1.581-.106-2.572-1.404t-1.062-2.808q-.2-8.213-.2-20.639 0-12.413.07-16.177.059-3.765.885-5.31.826-1.534 3.15-1.534h7.529q2.325 0 4.79 1.298 21.217 11.02 24.769 12.803 1.168.542 1.853.13.684-.414.684-1.5v-9.58q0-1.37.72-2.266.72-.885 1.947-.885Zm66.044 0h7.328q2.325 0 3.245.755.932.743.99 3.08.414 10.395.414 22.372t-.472 17.523q-.141 1.57-1.203 2.88-1.062 1.298-2.773 1.298h-11.423q-2.395 0-5.274-1.71-15.883-9.382-19.99-11.436-.814-.342-1.333.236-.507.59-.507 2.16v7.6q0 1.297-.956 2.052-1.44 1.168-7.4 1.168-1.64 0-3.21-.106-1.58-.106-2.571-1.404-.99-1.298-1.062-2.808-.2-8.213-.2-20.639 0-12.413.07-16.177.06-3.765.886-5.31.826-1.534 3.15-1.534h7.529q2.324 0 4.79 1.298 21.217 11.02 24.769 12.803 1.168.542 1.852.13.685-.414.685-1.5v-9.58q0-1.37.72-2.266.72-.885 1.946-.885Zm24.697 47.908q-1.912 0-3.257-1.275-1.334-1.262-1.711-4.165-.366-2.915-.366-17.452 0-14.55.472-18.998.555-5.747 4.862-5.889 4.932-.13 40.863-.13 4.036 0 4.036 5.134 0 4.035-3.564 4.035h-15.057q-1.44 0-2.29.956-.86.956-.86 2.466v4.933q0 2.053 1.852 2.053h12.46q1.087 0 1.677.2.578.201 1.062 1.192.472 1.003.472 3.257t-.791 3.01q-.78.754-2.56.754h-11.152q-1.71 0-2.371.85-.65.861-.65 2.643v3.351q0 2.938 2.809 2.938h17.04q1.238 0 2.194.72t.956 3.15q0 2.432-1.157 4.343-1.168 1.924-2.737 1.924Zm80.913-33.618.13 12.66q0 1.3 1.44 1.3 4.248 0 6.667-2.36 2.43-2.36 2.43-5.583 0-3.21-2.29-5.534-2.288-2.336-6.736-2.336-1.64 0-1.64 1.852Zm17.925 20.46q1.298 1.37 9.239 10.337.484.614.484 1.098 0 1.781-1.581 1.781-3.623.06-7.281.06-3.67 0-7.292-.06-1.983 0-3.623-1.58l-5.888-8.898q-.342-.413-.826-.543-1.098-.413-1.098.885v6.986q0 2.938-3.858 3.15-3.87.201-8.46.201-4.58 0-11.081-.342-1.982-.142-3.186-1.369-1.192-1.227-1.404-2.808-.543-6.018-.543-18.928 0-12.897.413-18.785.4-5.877 5.947-5.947 5.204-.07 14.172-.07t14.844.14q8.496.13 13.9 6.29 5.405 6.16 5.405 13.9 0 4.508-2.088 8.343t-6.195 6.16Z"/><rect width="397.525" height="127.803" x="433.951" y="-63.752" fill="none" rx="0" ry="0" transform="translate(289.92 124.3)scale(1.18)"/><path fill="#b175ff" stroke="#000" stroke-width="2.018" d="m859.309 76.048.13 12.661q0 1.31 1.44 1.31 4.248 0 6.679-2.36 2.43-2.372 2.43-5.582 0-3.22-2.3-5.546-2.29-2.324-6.738-2.324-1.64 0-1.64 1.84Zm17.925 20.473q1.31 1.368 9.239 10.325.484.625.484 1.097 0 1.782-1.57 1.782-3.634.07-7.292.07t-7.292-.07q-1.983 0-3.623-1.57l-5.888-8.897q-.342-.413-.826-.554-1.086-.413-1.086.896v6.974q0 2.95-3.87 3.15-3.87.201-8.45.201-4.59 0-11.091-.342-1.982-.13-3.186-1.369-1.192-1.227-1.404-2.796-.543-6.03-.543-18.927t.413-18.786 5.947-5.959q5.204-.07 14.172-.07t14.856.14q8.484.142 13.889 6.302t5.404 13.89q0 4.518-2.088 8.353-2.09 3.823-6.195 6.16Zm21.558 13.133q-1.911 0-3.245-1.263t-1.71-4.177q-.378-2.903-.378-17.452 0-14.538.483-18.986.543-5.759 4.85-5.888 4.933-.142 40.864-.142 4.035 0 4.035 5.133 0 4.036-3.552 4.036h-15.056q-1.44 0-2.301.967-.85.956-.85 2.455v4.932q0 2.053 1.84 2.053h12.462q1.097 0 1.675.2.578.213 1.062 1.204.484.992.484 3.245 0 2.266-.79 3.021-.791.744-2.573.744H924.94q-1.711 0-2.36.861-.65.85-.65 2.631v3.352q0 2.95 2.809 2.95h17.04q1.227 0 2.183.72.967.72.967 3.15 0 2.42-1.168 4.342-1.168 1.912-2.738 1.912Zm96.642-44.687 22.385 37.843q1.369 2.266 1.369 3.8 0 1.545-1.24 2.29-1.227.754-2.867.754h-22.042q-3.351 0-4.307-1.227-.283-.413-.755-1.44l-1.983-4.248q-.897-1.982-4.177-2.254h-12.933q-1.44 0-2.195.272-.755.271-1.227 1.24l-2.678 5.533q-.685 1.24-1.5 1.687-.825.437-2.394.437h-6.16q-2.667 0-2.88-1.912-.07-.27-.07-.554 0-1.57 1.027-3.01l21.428-37.77q3.08-5.346 9.995-5.346h5.475q5.475 0 7.73 3.905ZM973.262 82.49l-3.15 6.22q-.272.624-.272 1.096 0 1.782 1.71 1.782h6.23q1.429 0 1.984-.72.543-.72.543-1.262 0-.555-.201-1.098l-2.608-5.888q-.814-1.782-2.112-1.782-1.31 0-2.124 1.652Zm83.897 27.035q-4.59.4-13.145.4t-11.67-.236-4.685-1.132q-1.581-.885-1.711-2.797-.413-7.399-.413-16.874t.27-20.084q.143-6.572 6.09-6.985 4.177-.272 12.803-.272t13.51.236q4.898.236 9.453 2.266 4.555 2.018 7.292 5.227 5.676 6.644 5.676 15.4 0 9.24-5.96 16.496-2.866 3.493-7.421 5.746-4.555 2.266-10.09 2.608Zm-3.08-32.994V93.1q0 .542.4 1.026.414.472 1.099.472 4.377 0 6.737-3.009 2.372-3.009 2.372-7.115 0-4.107-2.16-7.15-2.16-3.045-5.781-3.045-.897 0-1.37.06-1.297.341-1.297 2.193Zm38.469-14.785h18.35q2.867 0 3.787 1.44.932 1.44 1.239 5.923t.307 17.382q0 12.897-.543 18.927-.212 1.57-1.404 2.796-1.204 1.24-3.186 1.37-3.906.282-9.04.282t-9.71-.283q-1.983-.13-3.186-1.369-1.192-1.227-1.405-2.796-.542-6.03-.542-18.927t.306-17.382q.307-4.484 1.228-5.923.932-1.44 3.8-1.44Zm78.28 0h7.328q2.325 0 3.245.755.932.755 1.003 3.08.4 10.408.4 22.385t-.471 17.51q-.141 1.582-1.203 2.88t-2.773 1.298h-11.423q-2.395 0-5.274-1.71-15.871-9.37-19.978-11.422-.826-.344-1.345.235-.507.578-.507 2.16v7.587q0 1.31-.956 2.053-1.44 1.169-7.4 1.169-1.64 0-3.21-.106-1.58-.095-2.571-1.405-.991-1.298-1.062-2.796-.2-8.213-.2-20.638t.07-16.19.885-5.298q.826-1.546 3.15-1.546h7.529q2.325 0 4.79 1.298 21.218 11.02 24.78 12.803 1.158.543 1.842.142.684-.413.684-1.51v-9.582q0-1.37.72-2.254.72-.897 1.947-.897Zm58.742 11.104q-6.16 0-8.661 3.186-2.502 3.174-2.502 10.09 0 10.88 6.372 10.88 1.298 0 1.71-.072-.825 0-1.332-2.868-.52-2.879-.52-6.03 0-3.138 1.71-4.07 1.712-.92 4.757-.92t4.248.035q1.192.035 2.737.271 1.534.236 2.36.72 1.912 1.097 1.912 3.28v9.995q0 5.345-1.912 8.52-1.911 3.185-7.186 3.728-7.387.755-22.585.755-6.09 0-10.443-1.91-4.342-1.925-6.738-5.347-4.378-6.36-4.378-16.177 0-9.83 6.302-17.488 6.289-7.67 16.767-8.213 7.187-.413 10.396-.413 11.706 0 16.638 1.44 3.35.956 3.35 5.404 0 5.96-3.491 5.96-1.098-.072-4.378-.414-3.292-.342-5.133-.342ZM845.94 174.295v5.758q0 2.938-4 3.14-4 .211-8.697.211-4.684 0-10.702-.342-1.983-.142-3.186-1.369-1.192-1.239-1.405-2.808-.542-6.018-.542-18.928 0-12.897.413-18.785.4-5.888 5.947-5.947 6.372-.142 13.617-.142 7.257 0 15.706.2 8.46.213 13.794 6.373 5.345 6.16 5.345 13.546 0 7.4-4.731 12.19-4.72 4.79-13.818 4.79h-5.346q-.885 0-1.64.614-.755.613-.755 1.498Zm-.06-24.769.13 12.662q0 1.298 1.44 1.298 4.248 0 6.667-2.36 2.43-2.36 2.43-5.582 0-3.21-2.288-5.546-2.29-2.324-6.738-2.324-1.64 0-1.64 1.852Zm61.526 2.183-.07 13.688q0 3.021.92 4.484.932 1.475 3.87 1.475h17.31q3.15.071 3.15 4.791 0 3.623-.884 5.275-.896 1.64-3.634 1.71-9.64.272-19.092.272-9.44 0-24.084-.142-2.466 0-4.012-1.19-1.534-1.205-1.747-3.329-.542-5.947-.542-18.786 0-12.826.306-17.31.307-4.484 1.263-5.96.968-1.462 3.764-1.462h18.35q2.867 0 3.799 1.498.92 1.51 1.12 4.862.213 3.351.213 10.124Zm74.103-13.274 22.385 37.854q1.368 2.253 1.368 3.787 0 1.546-1.24 2.301-1.226.756-2.866.756h-22.042q-3.352 0-4.307-1.24-.272-.412-.756-1.439l-1.982-4.236q-.897-1.983-4.177-2.266h-12.933q-1.44 0-2.195.283-.755.272-1.227 1.228l-2.667 5.546q-.684 1.227-1.51 1.675-.826.45-2.396.45h-6.16q-2.666 0-2.878-1.925-.06-.27-.06-.543 0-1.58 1.027-3.009l21.418-37.782q3.08-5.334 9.995-5.334h5.475q5.475 0 7.729 3.894Zm-22.172 17.522-3.15 6.23q-.272.614-.272 1.098 0 1.77 1.71 1.77h6.23q1.44 0 1.984-.72.542-.708.542-1.262 0-.543-.2-1.098l-2.596-5.876q-.826-1.782-2.124-1.782t-2.124 1.64Zm98.838-20.72h7.328q2.324 0 3.245.743.932.755.99 3.08.414 10.407.414 22.384t-.472 17.523q-.142 1.57-1.204 2.868-1.062 1.31-2.773 1.31h-11.422q-2.396 0-5.275-1.71-15.883-9.382-19.99-11.436-.813-.342-1.332.236-.508.59-.508 2.16v7.6q0 1.297-.956 2.052-1.44 1.157-7.398 1.157-1.64 0-3.21-.095-1.581-.106-2.572-1.404t-1.062-2.808q-.2-8.213-.2-20.639 0-12.413.07-16.177.059-3.765.885-5.31.826-1.534 3.15-1.534h7.529q2.325 0 4.79 1.298 21.217 11.02 24.769 12.79 1.168.555 1.853.142.684-.413.684-1.51v-9.582q0-1.368.72-2.253t1.947-.885Zm66.044 0h7.328q2.325 0 3.245.743.932.755.99 3.08.414 10.407.414 22.384t-.472 17.523q-.141 1.57-1.203 2.868-1.062 1.31-2.773 1.31h-11.423q-2.395 0-5.274-1.71-15.883-9.382-19.99-11.436-.814-.342-1.333.236-.507.59-.507 2.16v7.6q0 1.297-.956 2.052-1.44 1.157-7.4 1.157-1.64 0-3.21-.095-1.58-.106-2.571-1.404-.99-1.298-1.062-2.808-.2-8.213-.2-20.639 0-12.413.07-16.177.06-3.765.886-5.31.826-1.534 3.15-1.534h7.529q2.324 0 4.79 1.298 21.217 11.02 24.769 12.79 1.168.555 1.852.142t.685-1.51v-9.582q0-1.368.72-2.253t1.946-.885Zm24.697 47.896q-1.912 0-3.257-1.275-1.334-1.262-1.711-4.177-.366-2.903-.366-17.452 0-14.538.472-18.986.555-5.747 4.862-5.889 4.932-.13 40.863-.13 4.036 0 4.036 5.134 0 4.035-3.564 4.035h-15.057q-1.44 0-2.29.956-.86.956-.86 2.466v4.92q0 2.054 1.852 2.054h12.46q1.087 0 1.677.212.578.201 1.062 1.192.472.991.472 3.257 0 2.254-.791 3.01-.78.754-2.56.754h-11.152q-1.71 0-2.371.85-.65.861-.65 2.643v3.351q0 2.938 2.809 2.938h17.04q1.238 0 2.194.72t.956 3.15q0 2.432-1.157 4.343-1.168 1.924-2.737 1.924Zm80.913-33.607.13 12.662q0 1.298 1.44 1.298 4.248 0 6.667-2.36 2.43-2.36 2.43-5.582 0-3.21-2.29-5.546-2.288-2.324-6.736-2.324-1.64 0-1.64 1.852Zm17.925 20.461q1.298 1.37 9.239 10.337.484.614.484 1.098 0 1.77-1.581 1.77-3.623.07-7.281.07-3.67 0-7.292-.07-1.983 0-3.623-1.57l-5.888-8.897q-.342-.413-.826-.543-1.098-.413-1.098.885v6.986q0 2.938-3.858 3.14-3.87.211-8.46.211-4.58 0-11.081-.342-1.982-.142-3.186-1.369-1.192-1.239-1.404-2.808-.543-6.018-.543-18.928 0-12.897.413-18.785.4-5.888 5.947-5.947 5.204-.07 14.172-.07t14.844.13q8.496.14 13.9 6.3 5.405 6.16 5.405 13.89 0 4.518-2.088 8.353t-6.195 6.16Z"/></g><path fill="transparent" stroke="transparent" d="M719.5 0h561v265h-561z"/></g></svg>