<svg width="36" height="36" viewBox="0 0 36 36" fill="none" xmlns="http://www.w3.org/2000/svg">
<g clip-path="url(#clip0_741_1681)">
<path d="M6 27V26.025C6 25.515 6.24 25.035 6.615 24.81C9.15 23.295 12.045 22.5 15 22.5C15.045 22.5 15.075 22.5 15.12 22.515C15.27 21.465 15.57 20.46 16.005 19.545C15.675 19.515 15.345 19.5 15 19.5C11.37 19.5 7.98 20.505 5.085 22.23C3.765 23.01 3 24.48 3 26.025V30H16.89C16.26 29.1 15.765 28.08 15.435 27H6ZM15 18C18.315 18 21 15.315 21 12C21 8.685 18.315 6 15 6C11.685 6 9 8.685 9 12C9 15.315 11.685 18 15 18ZM15 9C16.65 9 18 10.35 18 12C18 13.65 16.65 15 15 15C13.35 15 12 13.65 12 12C12 10.35 13.35 9 15 9Z" fill="#4A00AA"/>
<path d="M31.245 18.945L29.07 19.68C28.59 19.275 28.05 18.96 27.45 18.735L27 16.5H24L23.55 18.735C22.95 18.96 22.41 19.275 21.93 19.68L19.755 18.945L18.255 21.54L19.965 23.04C19.92 23.355 19.875 23.655 19.875 23.985C19.875 24.315 19.92 24.615 19.965 24.93L18.255 26.43L19.755 29.025L21.93 28.29C22.41 28.695 22.95 29.01 23.55 29.235L24 31.5H27L27.45 29.265C28.05 29.04 28.59 28.725 29.07 28.32L31.245 29.055L32.745 26.46L31.035 24.96C31.08 24.645 31.125 24.345 31.125 24.015C31.125 23.685 31.08 23.385 31.035 23.07L32.745 21.57L31.245 18.945ZM25.5 27C23.85 27 22.5 25.65 22.5 24C22.5 22.35 23.85 21 25.5 21C27.15 21 28.5 22.35 28.5 24C28.5 25.65 27.15 27 25.5 27Z" fill="#4A00AA"/>
</g>
<defs>
<clipPath id="clip0_741_1681">
<rect width="36" height="36" fill="white"/>
</clipPath>
</defs>
</svg>
