<svg width="36" height="36" viewBox="0 0 36 36" fill="none" xmlns="http://www.w3.org/2000/svg">
<g clip-path="url(#clip0_1007_1328)">
<path d="M31.5 7.5C29.835 6.975 28.005 6.75 26.25 6.75C23.325 6.75 20.175 7.35 18 9C15.825 7.35 12.675 6.75 9.75 6.75C6.825 6.75 3.675 7.35 1.5 9V30.975C1.5 31.35 1.875 31.725 2.25 31.725C2.4 31.725 2.475 31.65 2.625 31.65C4.65 30.675 7.575 30 9.75 30C12.675 30 15.825 30.6 18 32.25C20.025 30.975 23.7 30 26.25 30C28.725 30 31.275 30.45 33.375 31.575C33.525 31.65 33.6 31.65 33.75 31.65C34.125 31.65 34.5 31.275 34.5 30.9V9C33.6 8.325 32.625 7.875 31.5 7.5ZM4.5 27.75V10.5C6.15 9.975 7.95 9.75 9.75 9.75C11.76 9.75 14.445 10.365 16.5 11.235V28.485C14.445 27.615 11.76 27 9.75 27C7.95 27 6.15 27.225 4.5 27.75ZM31.5 27.75C29.85 27.225 28.05 27 26.25 27C24.24 27 21.555 27.615 19.5 28.485V11.235C21.555 10.35 24.24 9.75 26.25 9.75C28.05 9.75 29.85 9.975 31.5 10.5V27.75Z" fill="#4A00AA"/>
<path d="M26.25 15.75C27.57 15.75 28.845 15.885 30 16.14V13.86C28.815 13.635 27.54 13.5 26.25 13.5C24.33 13.5 22.56 13.74 21 14.205V16.56C22.485 16.035 24.27 15.75 26.25 15.75Z" fill="#4A00AA"/>
<path d="M26.25 19.7402C27.57 19.7402 28.845 19.8752 30 20.1302V17.8502C28.815 17.6252 27.54 17.4902 26.25 17.4902C24.33 17.4902 22.56 17.7302 21 18.1952V20.5502C22.485 20.0402 24.27 19.7402 26.25 19.7402Z" fill="#4A00AA"/>
<path d="M26.25 23.7451C27.57 23.7451 28.845 23.8801 30 24.1351V21.8551C28.815 21.6301 27.54 21.4951 26.25 21.4951C24.33 21.4951 22.56 21.7351 21 22.2001V24.5551C22.485 24.0301 24.27 23.7451 26.25 23.7451Z" fill="#4A00AA"/>
</g>
<defs>
<clipPath id="clip0_1007_1328">
<rect width="36" height="36" fill="white"/>
</clipPath>
</defs>
</svg>
